<svg width="69" height="60" viewBox="0 0 69 60" fill="none" xmlns="http://www.w3.org/2000/svg">
<g clip-path="url(#clip0_1_78)">
<path d="M19 22.4C20.328 23.4272 22.3232 24.0272 24.6 24C26.8768 24.0272 28.872 23.4272 30.2 22.4C31.528 21.3728 33.5232 20.7728 35.8 20.8C38.0768 20.7728 40.072 21.3728 41.4 22.4" stroke="#F7F7F7" stroke-width="2" stroke-linecap="round" stroke-linejoin="round"/>
<path d="M27 4.79999C26.4936 5.16346 26.0833 5.64474 25.8046 6.20227C25.5258 6.75979 25.387 7.37679 25.4 7.99999C25.387 8.62318 25.5258 9.24019 25.8046 9.79771C26.0833 10.3552 26.4936 10.8365 27 11.2" stroke="#F7F7F7" stroke-width="2" stroke-linecap="round" stroke-linejoin="round"/>
<path d="M33.4 4.79999C32.8936 5.16346 32.4833 5.64474 32.2046 6.20227C31.9258 6.75979 31.787 7.37679 31.8 7.99999C31.787 8.62318 31.9258 9.24019 32.2046 9.79771C32.4833 10.3552 32.8936 10.8365 33.4 11.2" stroke="#F7F7F7" stroke-width="2" stroke-linecap="round" stroke-linejoin="round"/>
<path d="M19 16H41.4V24C41.4 26.5461 40.8004 28.5997 39 30.4C37.1997 32.2003 36.6 32 31 32L28.6 33.6C26.0539 33.6 23.6121 32.5886 21.8118 30.7882C20.0114 28.9879 19 26.5461 19 24V16Z" stroke="#F7F7F7" stroke-width="2" stroke-linecap="round" stroke-linejoin="round"/>
</g>
<g clip-path="url(#clip1_1_78)">
<path d="M28.6 35.2C28.6 36.0487 28.9371 36.8626 29.5373 37.4627C30.1374 38.0629 30.9513 38.4 31.8 38.4C32.6487 38.4 33.4626 38.0629 34.0627 37.4627C34.6629 36.8626 35 36.0487 35 35.2C35 34.3513 34.6629 33.5374 34.0627 32.9373C33.4626 32.3371 32.6487 32 31.8 32C30.9513 32 30.1374 32.3371 29.5373 32.9373C28.9371 33.5374 28.6 34.3513 28.6 35.2Z" stroke="#F7F7F7" stroke-width="2" stroke-linecap="round" stroke-linejoin="round"/>
<path d="M44.6 35.2C44.6 36.0487 44.9371 36.8626 45.5373 37.4627C46.1374 38.0629 46.9513 38.4 47.8 38.4C48.6487 38.4 49.4626 38.0629 50.0627 37.4627C50.6629 36.8626 51 36.0487 51 35.2C51 34.3513 50.6629 33.5374 50.0627 32.9373C49.4626 32.3371 48.6487 32 47.8 32C46.9513 32 46.1374 32.3371 45.5373 32.9373C44.9371 33.5374 44.6 34.3513 44.6 35.2Z" stroke="#F7F7F7" stroke-width="2" stroke-linecap="round" stroke-linejoin="round"/>
<path d="M28.6 35.2H25.4V33.6M23.8 16H41.4V35.2M35 35.2H44.6M51 35.2H54.2V25.6M54.2 25.6H41.4M54.2 25.6L49.4 17.6H41.4" stroke="#F7F7F7" stroke-width="2" stroke-linecap="round" stroke-linejoin="round"/>
</g>
<path d="M17.8026 26.7623C17.088 27.0903 16.3038 27.2378 15.5189 27.1917C14.734 27.1457 13.9724 26.9076 13.3011 26.4982C12.6298 26.0889 12.0694 25.521 11.669 24.8443C11.2686 24.1676 11.0406 23.4029 11.0049 22.6175C10.9693 21.8321 11.1272 21.0499 11.4646 20.3397C11.8021 19.6296 12.3089 19.0132 12.9403 18.5448C13.5718 18.0764 14.3087 17.7703 15.0862 17.6533C15.8637 17.5364 16.6581 17.6123 17.3994 17.8743" stroke="#F7F7F7" stroke-width="2" stroke-linecap="round" stroke-linejoin="round"/>
<path d="M3.93324 57.1193C3.29688 57.1193 2.73011 57.0099 2.23295 56.7912C1.73864 56.5696 1.34801 56.2656 1.06108 55.8793C0.776989 55.4901 0.630682 55.0412 0.622159 54.5327H2.48011C2.49148 54.7457 2.56108 54.9332 2.68892 55.0952C2.8196 55.2543 2.9929 55.3778 3.20881 55.4659C3.42472 55.554 3.66761 55.598 3.9375 55.598C4.21875 55.598 4.46733 55.5483 4.68324 55.4489C4.89915 55.3494 5.06818 55.2116 5.19034 55.0355C5.3125 54.8594 5.37358 54.6562 5.37358 54.4261C5.37358 54.1932 5.30824 53.9872 5.17756 53.8082C5.04972 53.6264 4.86506 53.4844 4.62358 53.3821C4.38494 53.2798 4.10085 53.2287 3.77131 53.2287H2.95739V51.8736H3.77131C4.04972 51.8736 4.29545 51.8253 4.50852 51.7287C4.72443 51.6321 4.89205 51.4986 5.01136 51.3281C5.13068 51.1548 5.19034 50.9531 5.19034 50.723C5.19034 50.5043 5.13778 50.3125 5.03267 50.1477C4.9304 49.9801 4.78551 49.8494 4.59801 49.7557C4.41335 49.6619 4.19744 49.6151 3.95028 49.6151C3.70028 49.6151 3.47159 49.6605 3.2642 49.7514C3.05682 49.8395 2.89062 49.9659 2.76562 50.1307C2.64062 50.2955 2.57386 50.4886 2.56534 50.7102H0.796875C0.805398 50.2074 0.948864 49.7642 1.22727 49.3807C1.50568 48.9972 1.88068 48.6974 2.35227 48.4815C2.8267 48.2628 3.36222 48.1534 3.95881 48.1534C4.56108 48.1534 5.08807 48.2628 5.53977 48.4815C5.99148 48.7003 6.34233 48.9957 6.59233 49.3679C6.84517 49.7372 6.97017 50.152 6.96733 50.6122C6.97017 51.1009 6.81818 51.5085 6.51136 51.8352C6.20739 52.1619 5.81108 52.3693 5.32244 52.4574V52.5256C5.96449 52.608 6.45313 52.831 6.78835 53.1946C7.12642 53.5554 7.29403 54.0071 7.29119 54.5497C7.29403 55.0469 7.15057 55.4886 6.8608 55.875C6.57386 56.2614 6.17756 56.5653 5.67188 56.7869C5.16619 57.0085 4.58665 57.1193 3.93324 57.1193ZM16.369 51.3281H14.5025C14.4684 51.0866 14.3988 50.8722 14.2937 50.6847C14.1886 50.4943 14.0536 50.3324 13.8888 50.1989C13.7241 50.0653 13.5337 49.9631 13.3178 49.892C13.1048 49.821 12.8732 49.7855 12.6232 49.7855C12.1715 49.7855 11.7781 49.8977 11.4428 50.1222C11.1076 50.3437 10.8477 50.6676 10.663 51.0938C10.4783 51.517 10.386 52.0312 10.386 52.6364C10.386 53.2585 10.4783 53.7812 10.663 54.2045C10.8505 54.6278 11.1119 54.9474 11.4471 55.1634C11.7823 55.3793 12.1701 55.4872 12.6104 55.4872C12.8576 55.4872 13.0863 55.4545 13.2965 55.3892C13.5096 55.3239 13.6985 55.2287 13.8633 55.1037C14.0281 54.9759 14.1644 54.821 14.2724 54.6392C14.3832 54.4574 14.4599 54.25 14.5025 54.017L16.369 54.0256C16.3207 54.4261 16.1999 54.8125 16.0067 55.1847C15.8164 55.554 15.5593 55.8849 15.2354 56.1776C14.9144 56.4673 14.5309 56.6974 14.0849 56.8679C13.6417 57.0355 13.1403 57.1193 12.5806 57.1193C11.8022 57.1193 11.1062 56.9432 10.4925 56.5909C9.88175 56.2386 9.39879 55.7287 9.04368 55.0611C8.69141 54.3935 8.51527 53.5852 8.51527 52.6364C8.51527 51.6847 8.69425 50.875 9.0522 50.2074C9.41016 49.5398 9.89595 49.0312 10.5096 48.6818C11.1232 48.3295 11.8136 48.1534 12.5806 48.1534C13.0863 48.1534 13.555 48.2244 13.9869 48.3665C14.4215 48.5085 14.8065 48.7159 15.1417 48.9886C15.4769 49.2585 15.7496 49.5895 15.9599 49.9815C16.1729 50.3736 16.3093 50.8224 16.369 51.3281ZM20.445 57.1364C19.9052 57.1364 19.4251 56.9915 19.0046 56.7017C18.5842 56.4091 18.2532 56.0071 18.0117 55.4957C17.7702 54.9844 17.6495 54.402 17.6495 53.7486C17.6495 53.0923 17.7702 52.5099 18.0117 52.0014C18.2532 51.4901 18.5842 51.0881 19.0046 50.7955C19.4251 50.5028 19.9052 50.3565 20.445 50.3565C20.9847 50.3565 21.4648 50.5028 21.8853 50.7955C22.3058 51.0881 22.6367 51.4901 22.8782 52.0014C23.1197 52.5128 23.2404 53.0952 23.2404 53.7486C23.2404 54.402 23.1197 54.9844 22.8782 55.4957C22.6367 56.0071 22.3058 56.4091 21.8853 56.7017C21.4648 56.9915 20.9847 57.1364 20.445 57.1364ZM20.445 56.6548C20.9023 56.6548 21.3015 56.5256 21.6424 56.267C21.9862 56.0085 22.2518 55.6591 22.4393 55.2188C22.6296 54.7784 22.7248 54.2884 22.7248 53.7486C22.7248 53.2088 22.6296 52.7202 22.4393 52.2827C22.2489 51.8423 21.9833 51.4929 21.6424 51.2344C21.3015 50.973 20.9023 50.8423 20.445 50.8423C19.9876 50.8423 19.5884 50.973 19.2475 51.2344C18.9066 51.4929 18.641 51.8423 18.4506 52.2827C18.2603 52.7202 18.1651 53.2088 18.1651 53.7486C18.1651 54.2884 18.2589 54.7784 18.4464 55.2188C18.6367 55.6591 18.9023 56.0085 19.2433 56.267C19.587 56.5256 19.9876 56.6548 20.445 56.6548ZM25.0312 57V50.4545H25.5384V51.4432H25.5895C25.7145 51.1136 25.9304 50.8523 26.2372 50.6591C26.544 50.4659 26.9134 50.3693 27.3452 50.3693C27.8196 50.3693 28.2017 50.483 28.4915 50.7102C28.7841 50.9375 28.9943 51.2457 29.1222 51.6349H29.169C29.2969 51.2514 29.5256 50.9446 29.8551 50.7145C30.1875 50.4844 30.5966 50.3693 31.0824 50.3693C31.7159 50.3693 32.1989 50.5696 32.5312 50.9702C32.8665 51.3679 33.0341 51.9134 33.0341 52.6065V57H32.5142V52.6065C32.5142 52.0611 32.3835 51.6321 32.1222 51.3196C31.8608 51.0071 31.4773 50.8509 30.9716 50.8509C30.4318 50.8509 30.017 51.0199 29.7273 51.358C29.4375 51.696 29.2926 52.1264 29.2926 52.6491V57H28.7727V52.5724C28.7727 52.0639 28.6449 51.6506 28.3892 51.3324C28.1335 51.0114 27.75 50.8509 27.2386 50.8509C26.892 50.8509 26.5923 50.9304 26.3395 51.0895C26.0895 51.2486 25.8949 51.4673 25.7557 51.7457C25.6193 52.0241 25.5511 52.3437 25.5511 52.7045V57H25.0312ZM35.1914 57V50.4545H35.6985V51.4432H35.7496C35.8746 51.1136 36.0906 50.8523 36.3974 50.6591C36.7042 50.4659 37.0735 50.3693 37.5053 50.3693C37.9798 50.3693 38.3619 50.483 38.6516 50.7102C38.9442 50.9375 39.1545 51.2457 39.2823 51.6349H39.3292C39.457 51.2514 39.6857 50.9446 40.0153 50.7145C40.3477 50.4844 40.7567 50.3693 41.2425 50.3693C41.8761 50.3693 42.359 50.5696 42.6914 50.9702C43.0266 51.3679 43.1942 51.9134 43.1942 52.6065V57H42.6744V52.6065C42.6744 52.0611 42.5437 51.6321 42.2823 51.3196C42.021 51.0071 41.6374 50.8509 41.1317 50.8509C40.592 50.8509 40.1772 51.0199 39.8874 51.358C39.5977 51.696 39.4528 52.1264 39.4528 52.6491V57H38.9329V52.5724C38.9329 52.0639 38.805 51.6506 38.5494 51.3324C38.2937 51.0114 37.9102 50.8509 37.3988 50.8509C37.0522 50.8509 36.7525 50.9304 36.4996 51.0895C36.2496 51.2486 36.055 51.4673 35.9158 51.7457C35.7795 52.0241 35.7113 52.3437 35.7113 52.7045V57H35.1914ZM47.9041 57.1364C47.3132 57.1364 46.799 56.9901 46.3615 56.6974C45.924 56.4048 45.5859 56.0043 45.3473 55.4957C45.1087 54.9872 44.9893 54.4077 44.9893 53.7571C44.9893 53.1037 45.1087 52.5213 45.3473 52.0099C45.5888 51.4986 45.9197 51.0952 46.3402 50.7997C46.7607 50.5043 47.2408 50.3565 47.7805 50.3565C48.147 50.3565 48.4936 50.4304 48.8203 50.5781C49.1499 50.723 49.4396 50.9332 49.6896 51.2088C49.9425 51.4844 50.1399 51.8168 50.282 52.206C50.4268 52.5952 50.4993 53.0327 50.4993 53.5185V53.8423H45.3175V53.3693H49.9794C49.9794 52.8949 49.8828 52.4673 49.6896 52.0866C49.4964 51.706 49.2337 51.4034 48.9013 51.179C48.5689 50.9545 48.1953 50.8423 47.7805 50.8423C47.3459 50.8423 46.9581 50.9645 46.6172 51.2088C46.2791 51.4503 46.0107 51.777 45.8118 52.1889C45.6158 52.6009 45.5135 53.0611 45.505 53.5696V53.7827C45.505 54.3281 45.6001 54.8182 45.7905 55.2528C45.9837 55.6847 46.2592 56.027 46.6172 56.2798C46.9751 56.5298 47.4041 56.6548 47.9041 56.6548C48.2621 56.6548 48.5675 56.5952 48.8203 56.4759C49.076 56.3537 49.2848 56.206 49.4467 56.0327C49.6087 55.8594 49.7308 55.6918 49.8132 55.5298L50.2862 55.7216C50.1868 55.9403 50.032 56.1591 49.8217 56.3778C49.6143 56.5937 49.3501 56.7741 49.0291 56.919C48.7109 57.0639 48.3359 57.1364 47.9041 57.1364ZM52.2891 57V50.4545H52.7962V51.4773H52.843C52.9851 51.142 53.2251 50.8736 53.5632 50.6719C53.9013 50.4673 54.2862 50.3651 54.718 50.3651C54.7635 50.3651 54.8089 50.3651 54.8544 50.3651C54.8999 50.3651 54.9425 50.3665 54.9822 50.3693V50.8935C54.9482 50.8906 54.907 50.8864 54.8587 50.8807C54.8132 50.8722 54.7564 50.8679 54.6882 50.8679C54.3246 50.8679 54.0007 50.946 53.7166 51.1023C53.4354 51.2585 53.2138 51.4744 53.0518 51.75C52.8899 52.0227 52.8089 52.3352 52.8089 52.6875V57H52.2891ZM58.6342 57.1364C58.0774 57.1364 57.5874 56.9901 57.1641 56.6974C56.7408 56.402 56.4098 55.9986 56.1712 55.4872C55.9354 54.9759 55.8175 54.3963 55.8175 53.7486C55.8175 53.1009 55.9368 52.5213 56.1754 52.0099C56.4141 51.4986 56.745 51.0952 57.1683 50.7997C57.5916 50.5043 58.0788 50.3565 58.63 50.3565C59.0447 50.3565 59.4226 50.4418 59.7635 50.6122C60.1072 50.7827 60.3913 51.0199 60.6158 51.3239C60.843 51.6278 60.9879 51.9801 61.0504 52.3807H60.522C60.4368 51.9375 60.2237 51.571 59.8828 51.2812C59.5447 50.9886 59.1286 50.8423 58.6342 50.8423C58.1911 50.8423 57.7962 50.9673 57.4496 51.2173C57.103 51.4645 56.8303 51.8068 56.6314 52.2443C56.4325 52.679 56.3331 53.1776 56.3331 53.7401C56.3331 54.294 56.4297 54.7912 56.6229 55.2315C56.8161 55.669 57.0859 56.0156 57.4325 56.2713C57.7791 56.527 58.1797 56.6548 58.6342 56.6548C58.9553 56.6548 59.2479 56.5909 59.5121 56.4631C59.7791 56.3352 60.0021 56.1534 60.1811 55.9176C60.3601 55.6818 60.478 55.4062 60.5348 55.0909H61.0632C61.0007 55.4943 60.8587 55.8494 60.6371 56.1562C60.4155 56.4631 60.1328 56.7031 59.7891 56.8764C59.4453 57.0497 59.0604 57.1364 58.6342 57.1364ZM65.3885 57.1364C64.7976 57.1364 64.2834 56.9901 63.8459 56.6974C63.4084 56.4048 63.0703 56.0043 62.8317 55.4957C62.593 54.9872 62.4737 54.4077 62.4737 53.7571C62.4737 53.1037 62.593 52.5213 62.8317 52.0099C63.0732 51.4986 63.4041 51.0952 63.8246 50.7997C64.245 50.5043 64.7251 50.3565 65.2649 50.3565C65.6314 50.3565 65.978 50.4304 66.3047 50.5781C66.6342 50.723 66.924 50.9332 67.174 51.2088C67.4268 51.4844 67.6243 51.8168 67.7663 52.206C67.9112 52.5952 67.9837 53.0327 67.9837 53.5185V53.8423H62.8018V53.3693H67.4638C67.4638 52.8949 67.3672 52.4673 67.174 52.0866C66.9808 51.706 66.718 51.4034 66.3857 51.179C66.0533 50.9545 65.6797 50.8423 65.2649 50.8423C64.8303 50.8423 64.4425 50.9645 64.1016 51.2088C63.7635 51.4503 63.495 51.777 63.2962 52.1889C63.1001 52.6009 62.9979 53.0611 62.9893 53.5696V53.7827C62.9893 54.3281 63.0845 54.8182 63.2749 55.2528C63.468 55.6847 63.7436 56.027 64.1016 56.2798C64.4595 56.5298 64.8885 56.6548 65.3885 56.6548C65.7464 56.6548 66.0518 56.5952 66.3047 56.4759C66.5604 56.3537 66.7692 56.206 66.9311 56.0327C67.093 55.8594 67.2152 55.6918 67.2976 55.5298L67.7706 55.7216C67.6712 55.9403 67.5163 56.1591 67.3061 56.3778C67.0987 56.5937 66.8345 56.7741 66.5135 56.919C66.1953 57.0639 65.8203 57.1364 65.3885 57.1364Z" fill="white"/>
<defs>
<clipPath id="clip0_1_78">
<rect width="38.4" height="38.4" fill="white" transform="translate(14.2)"/>
</clipPath>
<clipPath id="clip1_1_78">
<rect width="38.4" height="38.4" fill="white" transform="translate(20.6 8)"/>
</clipPath>
</defs>
</svg>
